<?xml version="1.0" encoding="utf-8"?>
<!-- Generator: Adobe Illustrator 16.0.0, SVG Export Plug-In . SVG Version: 6.00 Build 0)  -->
<!DOCTYPE svg PUBLIC "-//W3C//DTD SVG 1.1//EN" "http://www.w3.org/Graphics/SVG/1.1/DTD/svg11.dtd">
<svg version="1.1" id="Layer_1" xmlns="http://www.w3.org/2000/svg" xmlns:xlink="http://www.w3.org/1999/xlink" x="0px" y="0px"
	 width="425px" height="90px" viewBox="0 0 425 90" enable-background="new 0 0 425 90" xml:space="preserve">
<g>
	<path display="none" fill-rule="evenodd" clip-rule="evenodd" fill="none" d="M106.625,90.457c0-30.588,0-60.814,0-90.914
		c-35.791,0-71.256,0-106.625,0C0,30.022,0,60.14,0,90.457C35.587,90.457,70.943,90.457,106.625,90.457z M344.238,62.241
		c10.33,0.102,18.174-7.142,18.396-16.988c0.225-9.707-7.693-17.48-17.857-17.522c-10.277-0.043-17.979,7.348-17.994,17.277
		C326.766,54.888,334.115,62.145,344.238,62.241z M299.766,62.241c10.373,0.132,18.137-7.044,18.34-16.95
		c0.199-9.699-7.311-17.34-17.248-17.553c-10.461-0.226-18.531,7.241-18.629,17.236C282.135,54.645,289.721,62.114,299.766,62.241z
		 M251.541,41.229c0-4.243,0-8.445,0-12.644c-2.918,0-5.172,0-7.5,0c0,11.205,0,22.061,0,33.025c2.549,0,4.799,0,7.621,0
		c0-4.509,0-8.736,0-12.989c4.617,0,8.652,0,13.195,0c0,4.433,0,8.667,0,12.962c2.762,0,5.004,0,7.375,0c0-11.171,0-22.013,0-33.088
		c-2.525,0-4.799,0-7.494,0c0,4.344,0,8.443,0,12.734C260.434,41.229,256.545,41.229,251.541,41.229z M191.472,34.67
		c-1.868-2.627-3.139-4.42-4.565-6.426c-4.512,4.76-8.56,9.026-13.464,14.197c0-5.524,0-9.619,0-13.953c-2.587,0-4.844,0-7.218,0
		c0,11.21,0,22.167,0,33.051c2.582,0,4.831,0,6.974,0c1.516-4.608-1.846-10.179,4.183-13.378c2.045,2.729,4.533,5.348,6.177,8.407
		c2.804,5.209,6.914,6.283,12.85,4.862c-4.708-6.425-9.218-12.577-14.025-19.138C185.452,39.719,188.292,37.338,191.472,34.67z
		 M402.701,61.35c-4.748-6.428-9.277-12.563-13.861-18.771c4.396-4.665,8.557-9.077,12.99-13.782
		c-5.664-1.433-9.666-0.544-12.895,3.832c-2.408,3.263-5.533,6.019-9.139,9.852c0-5.401,0-9.609,0-13.985c-2.711,0-4.982,0-7.314,0
		c0,11.212,0,22.164,0,33.067c2.615,0,4.865,0,6.971,0c1.381-4.663-2.045-10.43,4.35-13.349c1.977,2.677,4.24,5.102,5.746,7.92
		C392.26,61.226,396.168,63.113,402.701,61.35z M151.864,32.153c-5.661-4.137-11.457-5.626-17.849-3.405
		c-4.22,1.467-6.445,4.593-6.56,9.15c-0.111,4.444,1.955,7.343,6.087,8.83c2.783,1.002,5.76,1.541,8.427,2.758
		c1.288,0.588,2.061,2.266,3.068,3.447c-1.35,0.837-2.841,2.537-4.026,2.35c-3.583-0.564-7.048-1.857-11.186-3.047
		c-0.872,1.056-2.215,2.683-3.731,4.52c5.68,4.996,11.98,6.445,18.926,4.87c4.824-1.093,7.618-4.578,7.867-9.19
		c0.255-4.788-2.239-7.872-6.656-9.496c-2.483-0.913-5.198-1.3-7.549-2.436c-1.405-0.68-2.311-2.358-3.44-3.585
		c1.681-0.765,3.437-2.276,5.025-2.123c2.548,0.245,4.987,1.592,7.892,2.62C149.228,35.899,150.437,34.181,151.864,32.153z
		 M200.702,28.805c5.642,10.632,16.007,19.136,12.046,32.812c3.231,0,5.483,0,8.62,0c-4.172-13.852,6.496-22.262,11.938-32.824
		c-5.184-1.325-9.1-1.019-11.309,4.341c-1.121,2.729-3.059,5.135-4.924,8.165c-1.822-3.007-3.594-5.225-4.604-7.741
		C210.302,28.162,206.406,27.234,200.702,28.805z M414.885,40.001c3.467,0.004,6.293-2.711,6.299-6.063
		c0.004-3.28-2.912-6.149-6.27-6.168c-3.391-0.017-6.252,2.787-6.268,6.137C408.635,37.308,411.385,39.996,414.885,40.001z"/>
	<g id="XMLID_1_">
		<g>
			<path fill="#139FDA" d="M106.628-0.457c0,30.102,0,60.329,0,90.905c-35.684,0-71.041,0-106.626,0c0-30.311,0-60.426,0-90.905
				C35.374-0.457,70.83-0.457,106.628-0.457z M80.167,48.828l11.866-19.896l-8.839-0.056L76.23,41.345l-7.191-12.3l-8.868,0.014
				l11.767,19.714l0.057,12.188c3.141,0,5.258,0,8.228,0L80.167,48.828z M54.829,61.491l-0.014-19.965l-8.285-12.342l-8.243,15.54
				L28.95,28.933l-7.191-0.028c0,11.016,0,21.739,0,32.601c2.402,0,4.519,0,7.276,0c0-5.432,0-10.625,0-15.819l7.646,9.62
				l3.013,0.028l8.114-9.899v16.056C50.324,61.491,52.427,61.491,54.829,61.491z"/>
			<path fill="#FFFFFF" d="M92.033,28.933L80.167,48.828l0.057,12.133c-2.97,0-5.087,0-8.228,0l-0.057-12.188L60.172,29.059
				l8.868-0.014l7.191,12.3l6.963-12.468L92.033,28.933z"/>
			<path fill="#FFFFFF" d="M54.814,41.526l0.014,19.965c-2.402,0-4.505,0-7.021,0V45.436l-8.114,9.899l-3.013-0.028l-7.646-9.62
				c0,5.194,0,10.388,0,15.819c-2.757,0-4.874,0-7.276,0c0-10.862,0-21.585,0-32.601l7.191,0.028l9.336,15.791l8.243-15.54
				L54.814,41.526z"/>
		</g>
		<g>
		</g>
	</g>
	<path fill-rule="evenodd" clip-rule="evenodd" fill="#FFFFFF" d="M344.238,62.241c-10.123-0.097-17.473-7.354-17.455-17.233
		c0.016-9.929,7.717-17.32,17.994-17.277c10.164,0.042,18.082,7.815,17.857,17.522C362.412,55.1,354.568,62.343,344.238,62.241z
		 M354.4,44.914c-0.063-5.786-4.277-10.137-9.83-10.152c-5.498-0.014-9.861,4.468-9.889,10.158
		c-0.025,5.779,4.639,10.541,10.191,10.405C350.391,55.188,354.467,50.736,354.4,44.914z"/>
	<path fill-rule="evenodd" clip-rule="evenodd" fill="#FFFFFF" d="M299.766,62.241c-10.045-0.127-17.631-7.597-17.537-17.268
		c0.098-9.995,8.168-17.462,18.629-17.236c9.938,0.213,17.447,7.854,17.248,17.553C317.902,55.197,310.139,62.373,299.766,62.241z
		 M310.051,45.038c-0.023-5.746-4.24-10.187-9.756-10.278c-5.563-0.093-9.838,4.236-9.906,10.034
		c-0.066,5.944,4.33,10.603,9.957,10.546C305.822,55.279,310.07,50.771,310.051,45.038z"/>
	<path fill-rule="evenodd" clip-rule="evenodd" fill="#FFFFFF" d="M251.541,41.229c5.004,0,8.893,0,13.197,0
		c0-4.291,0-8.39,0-12.734c2.695,0,4.969,0,7.494,0c0,11.075,0,21.917,0,33.088c-2.371,0-4.613,0-7.375,0c0-4.295,0-8.529,0-12.962
		c-4.543,0-8.578,0-13.195,0c0,4.253,0,8.48,0,12.989c-2.822,0-5.072,0-7.621,0c0-10.964,0-21.82,0-33.025c2.328,0,4.582,0,7.5,0
		C251.541,32.783,251.541,36.985,251.541,41.229z"/>
	<path fill-rule="evenodd" clip-rule="evenodd" fill="#FFFFFF" d="M191.178,34.259l-8.795,8.035
		c4.807,6.561,9.317,12.713,14.025,19.138l-8.649,0.009l-10.325-15.354l-4.175,4.274l-0.061,11.179c-2.143,0-4.392,0-6.974,0
		c0-10.884,0-21.841,0-33.051c2.374,0,4.631,0,7.218,0c0,4.333,0,8.428,0,13.953l13.464-14.197L191.178,34.259z"/>
	<path fill-rule="evenodd" clip-rule="evenodd" fill="#FFFFFF" d="M402.701,61.35l-10.016-0.038l-9.635-14.091l-3.619,3.578
		l0.021,10.765h-6.971c0-10.903,0-33.067,0-33.067h7.314v13.985l12.848-13.645l9.186-0.04l-12.99,13.782
		C393.424,48.787,397.953,54.922,402.701,61.35z"/>
	<path fill-rule="evenodd" clip-rule="evenodd" fill="#FFFFFF" d="M151.864,32.153c-1.428,2.028-2.637,3.746-3.704,5.261
		c-3.059-1.887-5.344-2.375-7.892-2.62c-1.589-0.153-4.492-0.314-5.025,2.123c-0.267,3.147,1.969,3.085,3.44,3.585
		c2.476,0.84,5.066,1.523,7.549,2.436c4.417,1.624,6.911,4.708,6.656,9.496c-0.249,4.612-3.043,8.098-7.867,9.19
		c-6.946,1.575-13.247,0.126-18.926-4.87c1.516-1.837,2.859-3.464,3.731-4.52c5.595,2.839,7.579,3.444,11.186,3.047
		c2.266-0.25,3.646-0.122,4.026-2.35c-0.024-2.659-1.78-2.859-3.068-3.447c-2.667-1.217-5.645-1.756-8.427-2.758
		c-4.133-1.486-6.199-4.385-6.087-8.83c0.115-4.557,2.339-7.683,6.56-9.15C140.408,26.527,146.204,28.016,151.864,32.153z"/>
	<polygon fill-rule="evenodd" clip-rule="evenodd" fill="#FFFFFF" points="200.702,28.805 209.794,28.77 217.072,41.299 
		225.131,28.77 234.725,28.793 220.334,49.597 220.393,61.617 213.584,61.617 213.584,49.423 	"/>
	<path fill-rule="evenodd" clip-rule="evenodd" fill="#FFFFFF" d="M414.885,40.001c-3.5-0.006-6.25-2.694-6.238-6.094
		c0.016-3.35,2.877-6.154,6.268-6.137c3.357,0.019,6.273,2.888,6.27,6.168C421.178,37.29,418.352,40.006,414.885,40.001z
		 M418.076,34.3c-0.031-2.264-1.945-3.224-3.215-3.316c-0.941-0.067-2.729,1.143-2.834,2.74c-0.109,1.629,0.779,2.588,2.42,3.05
		C415.645,37.111,417.336,36.312,418.076,34.3z"/>
	<path display="none" fill-rule="evenodd" clip-rule="evenodd" fill="none" d="M21.755,28.903c7.685-1.227,7.679-1.224,10.949,5.113
		c1.689,3.274,3.402,6.536,5.577,10.714c3.021-5.691,5.68-10.704,8.245-15.538c10.585,8.972,8.754,20.635,8.301,32.31
		c-2.398,0-4.506,0-7.011,0c0-5.456,0-10.76,0-16.063c-0.297-0.095-0.594-0.189-0.89-0.283c-1.93,3.395-3.796,6.828-5.806,10.18
		c-1.817,3.024-4.033,3.022-5.853-0.022c-1.896-3.173-3.625-6.442-6.236-9.617c0,5.189,0,10.379,0,15.808c-2.757,0-4.869,0-7.276,0
		C21.755,50.642,21.755,39.928,21.755,28.903z"/>
	<path display="none" fill-rule="evenodd" clip-rule="evenodd" fill="none" d="M92.031,28.933
		c-5.418,10.333-15.812,18.478-11.813,32.036c-2.965,0-5.084,0-8.227,0c3.63-13.261-6.19-21.769-11.814-31.908
		c7.381-1.6,7.553-1.513,11.222,4.573c1.486,2.464,3.053,4.881,4.833,7.717c1.768-2.895,3.484-5.134,4.588-7.633
		C82.975,28.846,86.396,27.152,92.031,28.933z"/>
	<path display="none" fill-rule="evenodd" clip-rule="evenodd" fill="none" d="M354.4,44.914c0.066,5.822-4.01,10.274-9.527,10.411
		c-5.553,0.136-10.217-4.626-10.191-10.405c0.027-5.69,4.391-10.172,9.889-10.158C350.123,34.777,354.338,39.128,354.4,44.914z"/>
	<path display="none" fill-rule="evenodd" clip-rule="evenodd" fill="none" d="M310.051,45.038
		c0.02,5.733-4.229,10.241-9.705,10.302c-5.627,0.057-10.023-4.602-9.957-10.546c0.068-5.797,4.344-10.127,9.906-10.034
		C305.811,34.852,310.027,39.292,310.051,45.038z"/>
	<path display="none" fill-rule="evenodd" clip-rule="evenodd" fill="none" d="M419.496,34.3c-2.418,1.275-3.811,2.594-5.049,2.474
		c-0.969-0.095-2.514-2.046-2.42-3.05c0.094-1.057,1.893-2.807,2.834-2.74C416.131,31.076,417.289,32.617,419.496,34.3z"/>
</g>
</svg>
