<?xml version="1.0" encoding="utf-8"?>
<!-- Generator: Adobe Illustrator 16.0.0, SVG Export Plug-In . SVG Version: 6.00 Build 0)  -->
<!DOCTYPE svg PUBLIC "-//W3C//DTD SVG 1.1//EN" "http://www.w3.org/Graphics/SVG/1.1/DTD/svg11.dtd">
<svg version="1.1" id="Layer_1" xmlns="http://www.w3.org/2000/svg" xmlns:xlink="http://www.w3.org/1999/xlink" x="0px" y="0px"
	 width="600px" height="600px" viewBox="0 0 600 600" enable-background="new 0 0 600 600" xml:space="preserve">
<path fill-rule="evenodd" clip-rule="evenodd" fill="#FFFFFF" d="M311.557,183.461c64.318-0.007,128.638,0.206,192.954-0.228
	c10.166-0.068,13.932,1.846,13.805,12.64c-0.604,51.998-0.018,104.009-0.41,156.01c-0.209,27.364-17.345,47.756-41.649,51.896
	c-8.123,1.383-11.09-0.524-11.739-9.108c-6.819-90.056-92.934-153.888-183.458-136.382
	c-64.28,12.431-115.662,67.516-121.657,130.428c-1.612,16.908-5.415,19.567-21.241,12.648
	c-18.109-7.918-31.972-20.877-32.378-40.963c-1.139-56.519-0.754-113.065-1.089-169.6c-0.057-9.791,7.248-7.25,12.629-7.273
	c32.371-0.143,64.744-0.063,97.117-0.062C246.811,183.47,279.183,183.469,311.557,183.461z"/>
<path fill-rule="evenodd" clip-rule="evenodd" fill="#FFFFFF" d="M311.202,486.52c19.88,0.068,37.852-5.427,52.837-18.182
	c6.13-5.219,10.248-4.378,15.704,0.786c19.036,18.007,18.951,19.834-3.897,33.679c-44.642,27.055-104.226,22.91-142.827-9.935
	c-41.184-35.042-53.417-91.953-30.013-139.637c21.331-43.461,76.922-71.19,123.229-64.541
	c61.322,8.806,100.158,56.972,104.551,102.956c0.944,9.892-0.776,13.745-12.211,13.197c-19.955-0.956-19.992-0.213-24.46-18.575
	c-10.955-45.027-59.554-74.198-103.177-61.928c-49.868,14.028-76.266,61.376-59.904,107.447
	C242.425,463.858,275.417,486.428,311.202,486.52z"/>
<path fill-rule="evenodd" clip-rule="evenodd" fill="#FFFFFF" d="M311.664,404.536c-14.434-0.006-28.865-0.031-43.298,0.009
	c-4.495,0.013-7.791,0.41-7.117-6.406c2.262-22.85,24.222-42.438,49.468-43.064c23.863-0.592,47.459,17.265,51.239,38.322
	c1.419,7.909,0.555,12.029-9.557,11.365C338.878,403.874,325.248,404.542,311.664,404.536z"/>
<path fill-rule="evenodd" clip-rule="evenodd" fill="#FFFFFF" d="M242.775,164.899c-16.339,6.227-24.374-1.859-30.74-13.084
	c-1.843-3.247-3.209-7.386-6.995-8.419c-7.127-1.946-13.426-2.371-12.408,8.508c0.626,6.7,4.244,16.562-10.287,14.976
	c-6.047-0.661-7.883-2.028-7.785-7.888c0.339-20.191,0.386-40.396,0.012-60.585c-0.123-6.586,2.201-8.678,8.796-8.425
	c10.617,0.405,21.273-0.151,31.895,0.2c11.425,0.378,21.036,4.479,24.64,15.906c3.588,11.382,2.682,22.485-8.443,29.836
	c-5.309,3.506-5.437,5.99-1.868,10.507C234.22,152.283,238.288,158.554,242.775,164.899z M202.154,127.552
	c10.226-0.319,20.619,0.363,20.526-11.117c-0.1-12.322-11.27-10.314-19.944-11.408c-10.868-1.37-9.669,5.05-10.043,11.899
	C192.235,125.253,194.285,129.731,202.154,127.552z"/>
<path fill-rule="evenodd" clip-rule="evenodd" fill="#FFFFFF" d="M253.448,116.646c0-5.354,0.25-10.724-0.063-16.061
	c-0.377-6.425-0.065-10.823,9.027-10.764c8.837,0.058,9.444,4.075,9.252,10.693c-0.335,11.522-0.155,23.063-0.002,34.594
	c0.137,10.269,5.965,16.248,16.159,17.344c9.01,0.968,17.016-7.276,17.315-17.473c0.365-12.346,0.507-24.727-0.022-37.062
	c-0.307-7.155,3.185-7.973,9.2-7.97c6.16,0.004,9.432,1.229,9.162,8.198c-0.513,13.162,0.282,26.378-0.38,39.528
	c-0.964,19.187-13.771,30.284-34.276,30.671c-20.861,0.396-33.319-9.898-34.96-29.477c-0.617-7.362-0.1-14.812-0.1-22.222
	C253.655,116.646,253.553,116.646,253.448,116.646z"/>
<path fill-rule="evenodd" clip-rule="evenodd" fill="#FFFFFF" d="M365.704,168.336c-8.248-1.748-17.495-1.602-25.123-6.867
	c-3.467-2.392-9.635-3.876-4.813-10.019c3.326-4.237,6.315-9.026,13.205-4.495c5.286,3.479,11.175,6.171,17.829,6.031
	c4.952-0.105,9.635-1.591,10.426-7.024c0.779-5.348-3.843-6.888-8.021-7.941c-7.389-1.863-14.833-3.448-21.718-6.858
	c-8.485-4.204-12.49-10.752-11.898-19.994c0.579-9.039,4.981-15.818,13.472-19.349c12.052-5.011,24.25-3.746,35.914,1.418
	c3.626,1.603,10.193,2.481,6.043,9.375c-3.071,5.103-5.551,10.65-13.407,5.796c-3.501-2.161-7.257-4.197-11.794-4.23
	c-4.864-0.035-10.011-0.188-11.425,5.403c-1.561,6.174,3.924,7.42,8.306,8.86c3.611,1.186,7.419,1.8,11.075,2.875
	c17.567,5.166,23.538,12.672,21.583,26.982C393.605,161.125,382.928,168.445,365.704,168.336z"/>
<path fill-rule="evenodd" clip-rule="evenodd" fill="#FFFFFF" d="M477.866,143.641c7.757,12.146,16.087,13.775,25.706,7.368
	c7.052-4.699,9.14,1.622,12.006,4.642c3.446,3.629-1.349,5.796-3.536,7.417c-10.397,7.694-32.2,6.377-41.749-2.157
	c-11.003-9.833-13.001-27.789-4.538-40.796c7.972-12.249,23.486-16.714,37.915-10.913c10.367,4.169,18.326,18.185,17.319,29.184
	c-0.502,5.508-3.721,5.336-7.766,5.294C502.214,143.566,491.201,143.641,477.866,143.641z M490.619,133.194
	c3.748-2.023,10.825,2.892,11.272-3.65c0.392-5.766-5.494-9.12-11.529-8.889c-5.454,0.208-10.838,3.775-10.605,8.762
	C480.079,136.33,487.091,131.014,490.619,133.194z"/>
<path fill-rule="evenodd" clip-rule="evenodd" fill="#FFFFFF" d="M132.979,90.114c7.66-0.015,15.334,0.251,22.976-0.097
	c6.457-0.294,10.081,0.639,10.157,8.453c0.081,8.446-4.683,8.672-10.514,7.792c-10.951-1.653-13.747,2.848-13.034,12.932
	c0.929,13.134-0.2,26.394,0.386,39.564c0.311,6.975-2.593,8.08-8.84,8.025c-6.413-0.057-10.282-0.559-9.885-8.479
	c0.68-13.577-0.485-27.251,0.443-40.799c0.666-9.716-2.958-12.276-12.249-11.301c-5.754,0.605-13.162,2.699-12.66-8.009
	c0.31-6.608,2.419-8.576,8.971-8.182C116.785,90.498,124.894,90.129,132.979,90.114z"/>
<path fill-rule="evenodd" clip-rule="evenodd" fill="#FFFFFF" d="M432.096,90.131c7.659-0.017,15.343,0.329,22.975-0.121
	c6.637-0.392,9.796,0.864,9.934,8.451c0.149,8.26-4.243,8.81-10.199,7.822c-11.991-1.993-15.302,2.911-14.418,14.055
	c1.006,12.709-0.295,25.578,0.422,38.324c0.475,8.397-4.31,7.762-10.208,8.136c-6.915,0.438-8.623-1.97-8.391-8.369
	c0.494-13.593-0.544-27.256,0.377-40.807c0.651-9.576-2.697-12.344-12.101-11.463c-5.137,0.481-12.581,2.947-12.361-7.184
	c0.133-6.063,1.355-9.278,8.44-8.926C415.056,90.471,423.583,90.148,432.096,90.131z"/>
</svg>
