<?xml version="1.0" encoding="utf-8"?>
<!-- Generator: Adobe Illustrator 16.0.0, SVG Export Plug-In . SVG Version: 6.00 Build 0)  -->
<!DOCTYPE svg PUBLIC "-//W3C//DTD SVG 1.1//EN" "http://www.w3.org/Graphics/SVG/1.1/DTD/svg11.dtd">
<svg version="1.1" id="Layer_1" xmlns="http://www.w3.org/2000/svg" xmlns:xlink="http://www.w3.org/1999/xlink" x="0px" y="0px"
	 width="596px" height="595.281px" viewBox="0 0 596 595.281" enable-background="new 0 0 596 595.281" xml:space="preserve">
<g id="Layer_2">
	<circle fill="#FFFFFF" cx="299" cy="297.5" r="294.5"/>
</g>
<g>
	<rect x="149.659" y="234.406" fill="#6F6561" width="61.859" height="211.436"/>
	<path fill="#6F6561" d="M378.778,237.383c-19.779,0-39.958-4.08-61.463,29.268h-1.228l-1.079-32.231h-54.777
		c0.807,17.499,0.917,43.629,0.917,68.456v142.98h61.859V323.648c0-5.705,0.807-11.396,2.431-15.478
		c4.068-11.398,14.25-23.204,31.34-23.204c22.386,0,31.339,17.499,31.339,43.146v117.742h61.859V320.361
		C450.002,261.752,419.468,237.383,378.778,237.383z"/>
	<path fill="#6F6561" d="M180.588,149.144c-19.942,0-32.964,13.432-32.555,31.34c-0.409,17.089,12.625,30.93,32.157,30.93
		c20.353,0,33.373-13.841,33.373-30.93C213.155,162.576,200.53,149.144,180.588,149.144z"/>
</g>
</svg>
