<?xml version="1.0" encoding="utf-8"?>
<!-- Generator: Adobe Illustrator 16.0.0, SVG Export Plug-In . SVG Version: 6.00 Build 0)  -->
<!DOCTYPE svg PUBLIC "-//W3C//DTD SVG 1.1//EN" "http://www.w3.org/Graphics/SVG/1.1/DTD/svg11.dtd">
<svg version="1.1" id="Layer_1" xmlns="http://www.w3.org/2000/svg" xmlns:xlink="http://www.w3.org/1999/xlink" x="0px" y="0px"
	 width="300px" height="300px" viewBox="0 0 300 300" enable-background="new 0 0 300 300" xml:space="preserve">
<g>
	<path display="none" fill="none" d="M83.149,191.865c-14.421,0.009-26.042,11.487-26.166,25.847
		c-0.127,14.774,11.251,26.497,25.871,26.652c14.679,0.156,26.297-11.358,26.345-26.113
		C109.247,203.435,97.816,191.856,83.149,191.865z"/>
	<path fill="#545454" d="M287.953,22.392c0-10.815,0-10.815-10.975-10.222c-14.603,15.032-29.078,30.188-43.834,45.067
		c-25.195,25.405-50.556,50.646-75.889,75.914c-1.435,1.431-2.749,4.154-5.228,2.913c-3.832-1.917-7.82-4.059-10.146-7.771
		c-1.058-1.688,1.434-3.102,2.667-4.34c19.27-19.329,38.601-38.597,57.861-57.932c17.849-17.917,35.632-35.899,53.443-53.853
		c-4.661-0.058-9.324-0.083-13.985-0.182c-3.672-0.078-6.82,0.091-9.878,3.197c-33.185,33.714-66.65,67.153-99.813,100.891
		c-4.093,4.164-7.335,5.126-13.237,3.574c-33.519-8.814-63.796-3.171-87.194,23.963c-25.345,29.393-25.282,76.193-0.386,108.897
		c21.95,28.833,52.114,38.207,86.845,33.113c27.214-3.992,48.926-17.32,60.513-43.471c9.199-20.759,8.596-42.114,1.602-63.396
		c-1.043-3.175-0.635-5.064,1.736-7.365c8.129-7.885,16.027-16.008,23.991-24.063c6.205-6.276,14.741-11.598,17.896-19.158
		c3.151-7.548,0.9-17.352,1.018-26.166c0.004-0.333,0.04-0.671-0.003-0.999c-0.428-3.232,0.934-4.417,4.21-4.346
		c7.659,0.167,15.326-0.064,22.985,0.092c3.227,0.065,4.451-1.065,4.389-4.326c-0.146-7.659,0.087-15.326-0.085-22.984
		c-0.078-3.475,1.168-4.663,4.639-4.565c7.324,0.207,14.668-0.175,21.982,0.149c4.116,0.182,5.007-1.376,4.947-5.153
		C287.829,47.38,287.953,34.885,287.953,22.392z M82.854,244.364c-14.62-0.155-25.998-11.878-25.871-26.652
		c0.123-14.359,11.744-25.838,26.166-25.847c14.667-0.009,26.098,11.569,26.05,26.386
		C109.151,233.006,97.533,244.521,82.854,244.364z"/>
</g>
</svg>
